<?xml version="1.0" encoding="UTF-8" standalone="no"?>
<!-- Created with Inkscape (http://www.inkscape.org/) -->

<svg
   version="1.1"
   id="svg1"
   width="1250.9867"
   height="895.38666"
   viewBox="0 0 1250.9867 895.38666"
   sodipodi:docname="LOGO PJ SOLUÇÕES EM REFRIGERAÇÃO VERTICAL.eps"
   xmlns:inkscape="http://www.inkscape.org/namespaces/inkscape"
   xmlns:sodipodi="http://sodipodi.sourceforge.net/DTD/sodipodi-0.dtd"
   xmlns="http://www.w3.org/2000/svg"
   xmlns:svg="http://www.w3.org/2000/svg">
  <defs
     id="defs1" />
  <sodipodi:namedview
     id="namedview1"
     pagecolor="#ffffff"
     bordercolor="#000000"
     borderopacity="0.25"
     inkscape:showpageshadow="2"
     inkscape:pageopacity="0.0"
     inkscape:pagecheckerboard="0"
     inkscape:deskcolor="#d1d1d1">
    <inkscape:page
       x="0"
       y="0"
       inkscape:label="1"
       id="page1"
       width="1250.9867"
       height="895.38666"
       margin="0"
       bleed="0" />
  </sodipodi:namedview>
  <g
     id="g1"
     inkscape:groupmode="layer"
     inkscape:label="1">
    <g
       id="group-R5">
      <path
         id="path2"
         d="m 152.141,521.352 h 178.113 c 16.074,0 30.906,1.539 44.519,4.64 13.594,3.078 25.52,8.488 35.715,16.238 10.203,7.719 18.242,17.93 24.121,30.602 5.871,12.68 8.821,28.91 8.821,48.707 0,19.16 -2.95,35.25 -8.821,48.242 -5.879,12.981 -13.918,23.34 -24.121,31.078 -10.195,7.719 -22.121,13.121 -35.715,16.231 -13.613,3.09 -28.445,4.64 -44.519,4.64 H 152.141 Z m 0,-114.102 V 123.379 H 0 v 721.73 h 410.957 c 32.148,0 61.367,-4.168 87.664,-12.519 26.281,-8.348 48.852,-21.34 67.719,-38.969 18.855,-17.621 33.394,-40.199 43.601,-67.719 10.204,-27.523 15.313,-60.761 15.313,-99.722 0,-41.438 -5.43,-75.141 -16.238,-101.121 -10.832,-25.977 -23.508,-46.539 -38.039,-61.688 -14.532,-15.16 -29.375,-26.129 -44.524,-32.93 -15.164,-6.82 -27.371,-11.461 -36.648,-13.921 L 644.727,123.379 H 463.84 L 317.266,407.25 H 152.141"
         style="fill:#101838;fill-opacity:1;fill-rule:nonzero;stroke:none"
         transform="matrix(0.13333333,0,0,-0.13333333,0,895.38667)" />
      <path
         id="path3"
         d="M 1387.78,424.871 H 981.465 c 8.652,-63.082 26.435,-108.531 53.335,-136.359 26.91,-27.84 66.64,-41.75 119.21,-41.75 h 244.91 V 123.379 h -286.65 c -97.73,0 -171.95,30.922 -222.653,92.762 -50.711,61.839 -76.062,151.211 -76.062,268.109 0,116.879 25.351,206.242 76.062,268.09 50.703,61.84 124.923,92.769 222.653,92.769 h 286.65 V 721.73 h -244.91 c -16.7,0 -34.18,-1.55 -52.42,-4.64 -18.24,-3.11 -35.41,-10.531 -51.48,-22.27 -16.09,-11.75 -30.15,-29.539 -42.21,-53.34 -12.06,-23.808 -20.869,-56.441 -26.435,-97.871 H 1387.78 V 424.871"
         style="fill:#101838;fill-opacity:1;fill-rule:nonzero;stroke:none"
         transform="matrix(0.13333333,0,0,-0.13333333,0,895.38667)" />
      <path
         id="path4"
         d="m 2163.32,721.73 h -229.14 c -21.65,0 -43.45,-2.179 -65.4,-6.5 -21.95,-4.328 -41.74,-12.839 -59.37,-25.5 -17.62,-12.691 -32.16,-30.769 -43.6,-54.269 -11.44,-23.52 -17.16,-54.129 -17.16,-91.852 h 403.54 V 424.871 H 1748.65 V 123.379 h -152.14 v 374.769 c 0,50.711 4.95,97.25 14.85,139.622 9.88,42.359 26.74,78.851 50.55,109.472 23.8,30.61 55.5,54.578 95.09,71.887 39.57,17.32 88.73,25.98 147.5,25.98 h 258.82 V 721.73"
         style="fill:#101838;fill-opacity:1;fill-rule:nonzero;stroke:none"
         transform="matrix(0.13333333,0,0,-0.13333333,0,895.38667)" />
      <path
         id="path5"
         d="m 2513.05,521.352 h 178.11 c 16.08,0 30.91,1.539 44.52,4.64 13.6,3.078 25.52,8.488 35.72,16.238 10.2,7.719 18.24,17.93 24.12,30.602 5.87,12.68 8.82,28.91 8.82,48.707 0,19.16 -2.95,35.25 -8.82,48.242 -5.88,12.981 -13.92,23.34 -24.12,31.078 -10.2,7.719 -22.12,13.121 -35.72,16.231 -13.61,3.09 -28.44,4.64 -44.52,4.64 h -178.11 z m 0,-114.102 V 123.379 h -152.14 v 721.73 h 410.96 c 32.14,0 61.36,-4.168 87.66,-12.519 26.28,-8.348 48.85,-21.34 67.72,-38.969 18.85,-17.621 33.39,-40.199 43.6,-67.719 10.2,-27.523 15.31,-60.761 15.31,-99.722 0,-41.438 -5.43,-75.141 -16.24,-101.121 -10.83,-25.977 -23.5,-46.539 -38.04,-61.688 -14.53,-15.16 -29.37,-26.129 -44.52,-32.93 -15.16,-6.82 -27.37,-11.461 -36.65,-13.921 L 3005.63,123.379 H 2824.75 L 2678.17,407.25 h -165.12"
         style="fill:#101838;fill-opacity:1;fill-rule:nonzero;stroke:none"
         transform="matrix(0.13333333,0,0,-0.13333333,0,895.38667)" />
      <path
         id="path6"
         d="m 3211.57,123.379 v 721.73 h 152.14 v -721.73 h -152.14"
         style="fill:#101838;fill-opacity:1;fill-rule:nonzero;stroke:none"
         transform="matrix(0.13333333,0,0,-0.13333333,0,895.38667)" />
      <path
         id="path7"
         d="m 3637.36,216.141 c -50.71,61.839 -76.06,151.211 -76.06,268.109 0,116.879 25.35,206.242 76.06,268.09 50.71,61.84 124.93,92.769 222.65,92.769 h 381.27 V 721.73 h -336.75 c -62.47,0 -107.3,-20.261 -134.51,-60.761 -27.22,-40.52 -40.81,-99.43 -40.81,-176.719 0,-77.328 13.59,-136.23 40.81,-176.73 27.21,-40.508 72.04,-60.758 134.51,-60.758 h 184.61 v 178.109 h -200.37 v 118.738 h 352.51 v -420.23 h -381.27 c -97.72,0 -171.94,30.922 -222.65,92.762"
         style="fill:#101838;fill-opacity:1;fill-rule:nonzero;stroke:none"
         transform="matrix(0.13333333,0,0,-0.13333333,0,895.38667)" />
      <path
         id="path8"
         d="m 5003.83,424.871 h -406.32 c 8.65,-63.082 26.44,-108.531 53.34,-136.359 26.9,-27.84 66.63,-41.75 119.21,-41.75 h 244.9 V 123.379 h -286.65 c -97.72,0 -171.94,30.922 -222.65,92.762 -50.71,61.839 -76.06,151.211 -76.06,268.109 0,116.879 25.35,206.242 76.06,268.09 50.71,61.84 124.93,92.769 222.65,92.769 h 286.65 V 721.73 h -244.9 c -16.7,0 -34.18,-1.55 -52.42,-4.64 -18.25,-3.11 -35.41,-10.531 -51.49,-22.27 -16.08,-11.75 -30.14,-29.539 -42.2,-53.34 -12.07,-23.808 -20.87,-56.441 -26.44,-97.871 h 406.32 V 424.871"
         style="fill:#101838;fill-opacity:1;fill-rule:nonzero;stroke:none"
         transform="matrix(0.13333333,0,0,-0.13333333,0,895.38667)" />
      <path
         id="path9"
         d="m 5364.69,521.352 h 178.11 c 16.08,0 30.91,1.539 44.52,4.64 13.6,3.078 25.52,8.488 35.72,16.238 10.2,7.719 18.24,17.93 24.12,30.602 5.87,12.68 8.82,28.91 8.82,48.707 0,19.16 -2.95,35.25 -8.82,48.242 -5.88,12.981 -13.92,23.34 -24.12,31.078 -10.2,7.719 -22.12,13.121 -35.72,16.231 -13.61,3.09 -28.44,4.64 -44.52,4.64 h -178.11 z m 0,-114.102 V 123.379 h -152.14 v 721.73 h 410.96 c 32.14,0 61.36,-4.168 87.66,-12.519 26.28,-8.348 48.85,-21.34 67.72,-38.969 18.85,-17.621 33.4,-40.199 43.6,-67.719 10.21,-27.523 15.31,-60.761 15.31,-99.722 0,-41.438 -5.43,-75.141 -16.24,-101.121 -10.83,-25.977 -23.5,-46.539 -38.03,-61.688 -14.54,-15.16 -29.38,-26.129 -44.53,-32.93 -15.16,-6.82 -27.37,-11.461 -36.65,-13.921 L 5857.28,123.379 H 5676.39 L 5529.81,407.25 h -165.12"
         style="fill:#101838;fill-opacity:1;fill-rule:nonzero;stroke:none"
         transform="matrix(0.13333333,0,0,-0.13333333,0,895.38667)" />
      <path
         id="path10"
         d="m 6295.14,411.891 h 205.94 l -102.97,256.961 z m 25.97,433.218 h 154 l 304.27,-721.73 h -162.34 l -70.51,175.332 h -296.85 l -70.5,-175.332 h -162.34 l 304.27,721.73"
         style="fill:#101838;fill-opacity:1;fill-rule:nonzero;stroke:none"
         transform="matrix(0.13333333,0,0,-0.13333333,0,895.38667)" />
      <path
         id="path11"
         d="M 7372.17,7.42188 C 7367.21,2.48047 7361.34,0 7354.54,0 h -99.26 v 61.2188 h 49.16 c 8.67,0 12.99,4.3437 12.99,12.9921 v 49.1681 h -69.57 c -97.72,0 -171.94,30.922 -222.65,92.762 -50.71,61.839 -76.06,151.211 -76.06,268.109 0,116.879 25.35,206.242 76.06,268.09 50.71,61.84 124.93,92.769 222.65,92.769 h 305.21 V 721.73 h -260.69 c -62.47,0 -107.3,-20.261 -134.51,-60.761 -27.22,-40.52 -40.81,-99.43 -40.81,-176.719 0,-77.328 13.59,-136.23 40.81,-176.73 27.21,-40.508 72.04,-60.758 134.51,-60.758 h 260.69 V 123.379 H 7379.59 V 25.0508 c 0,-6.8008 -2.48,-12.6797 -7.42,-17.62892"
         style="fill:#101838;fill-opacity:1;fill-rule:nonzero;stroke:none"
         transform="matrix(0.13333333,0,0,-0.13333333,0,895.38667)" />
      <path
         id="path12"
         d="m 8009.46,411.891 h 205.95 l -102.98,256.961 z m 137.3,570.98 c 3.08,-7.121 9.88,-10.672 20.41,-10.672 11.13,0 18.23,3.551 21.34,10.672 3.08,7.098 4.63,14.981 4.63,23.649 v 59.38 h 50.09 v -85.349 c 0,-25.36 -7.11,-44.692 -21.33,-57.981 -14.23,-13.3 -32.47,-19.941 -54.73,-19.941 -21.66,0 -39.59,6.641 -53.81,19.941 -14.23,13.289 -21.33,32.621 -21.33,57.981 0,8.648 -1.55,16.539 -4.64,23.659 -3.1,7.1 -9.9,10.66 -20.41,10.66 -11.13,0 -18.25,-3.56 -21.34,-10.66 -3.1,-7.12 -4.63,-15.011 -4.63,-23.659 V 921.18 h -50.1 v 85.34 c 0,25.36 7.1,44.68 21.34,57.98 14.21,13.29 32.47,19.95 54.73,19.95 21.64,0 39.57,-6.66 53.8,-19.95 14.22,-13.3 21.34,-32.62 21.34,-57.98 0,-8.668 1.54,-16.551 4.64,-23.649 z M 8035.44,845.109 h 153.99 l 304.28,-721.73 h -162.34 l -70.51,175.332 H 7964 l -70.49,-175.332 h -162.35 l 304.28,721.73"
         style="fill:#101838;fill-opacity:1;fill-rule:nonzero;stroke:none"
         transform="matrix(0.13333333,0,0,-0.13333333,0,895.38667)" />
      <path
         id="path13"
         d="m 8915.79,715.23 c -26.6,-14.23 -46.84,-33.089 -60.76,-56.589 -13.92,-23.5 -22.89,-50.411 -26.9,-80.7 -4.03,-30.312 -6.03,-61.539 -6.03,-93.691 0,-32.168 2,-63.41 6.03,-93.699 4.01,-30.313 12.98,-57.211 26.9,-80.711 13.92,-23.508 34.16,-42.371 60.76,-56.59 26.58,-14.23 62.46,-21.34 107.61,-21.34 45.14,0 80.86,7.11 107.15,21.34 26.28,14.219 46.38,33.082 60.3,56.59 13.92,23.5 22.87,50.398 26.9,80.711 4.02,30.289 6.03,61.531 6.03,93.699 0,32.152 -2.01,63.379 -6.03,93.691 -4.03,30.289 -12.98,57.2 -26.9,80.7 -13.92,23.5 -34.02,42.359 -60.3,56.589 -26.29,14.219 -62.01,21.34 -107.15,21.34 -45.15,0 -81.03,-7.121 -107.61,-21.34 z M 8679.7,629.891 c 10.81,45.14 29.83,84.422 57.05,117.82 27.21,33.391 64.01,59.668 110.4,78.84 46.38,19.16 105.13,28.758 176.25,28.758 70.51,0 128.95,-9.598 175.33,-28.758 46.39,-19.172 83.17,-45.449 110.39,-78.84 27.21,-33.398 46.23,-72.68 57.06,-117.82 10.81,-45.149 16.23,-93.7 16.23,-145.641 0,-51.352 -5.42,-99.578 -16.23,-144.719 -10.83,-45.152 -29.85,-84.422 -57.06,-117.82 -27.22,-33.391 -64,-59.832 -110.39,-79.32 -46.38,-19.469 -104.82,-29.219 -175.33,-29.219 -71.12,0 -129.87,9.75 -176.25,29.219 -46.39,19.488 -83.19,45.929 -110.4,79.32 -27.22,33.398 -46.24,72.668 -57.05,117.82 -10.83,45.141 -16.23,93.367 -16.23,144.719 0,51.941 5.4,100.492 16.23,145.641"
         style="fill:#101838;fill-opacity:1;fill-rule:nonzero;stroke:none"
         transform="matrix(0.13333333,0,0,-0.13333333,0,895.38667)" />
      <path
         id="path14"
         d="m 2867.21,1523.6 h -196.7 c -12.43,0 -23.31,-3.58 -32.63,-10.72 -9.33,-7.16 -13.98,-18.03 -13.98,-32.63 0,-8.08 1.23,-14.84 3.73,-20.28 2.48,-5.44 5.9,-9.86 10.25,-13.28 4.35,-3.43 9.32,-5.91 14.91,-7.46 5.6,-1.55 11.5,-2.33 17.72,-2.33 h 112.33 c 9.63,0 20.43,-1.63 32.39,-4.9 11.97,-3.26 23.24,-8.93 33.8,-17.01 10.56,-8.09 19.42,-19.03 26.57,-32.86 7.14,-13.83 10.72,-31.31 10.72,-52.44 0,-21.13 -3.58,-38.54 -10.72,-52.2 -7.15,-13.68 -16.01,-24.56 -26.57,-32.64 -10.56,-8.07 -21.83,-13.75 -33.8,-17.01 -11.96,-3.26 -22.76,-4.89 -32.39,-4.89 h -235.86 v 61.99 h 200.43 c 6.54,0 12.67,1.17 18.42,3.5 5.74,2.33 10.72,5.44 14.91,9.32 4.2,3.88 7.53,8.55 10.02,13.99 2.49,5.43 3.73,11.41 3.73,17.94 0,13.05 -4.59,23.78 -13.75,32.17 -9.17,8.38 -20.27,12.58 -33.33,12.58 h -111.86 c -9.95,0 -20.9,1.55 -32.86,4.66 -11.97,3.11 -23.24,8.63 -33.8,16.55 -10.57,7.92 -19.43,18.72 -26.57,32.4 -7.15,13.67 -10.72,31.06 -10.72,52.2 0,21.13 3.57,38.45 10.72,51.98 7.14,13.51 16,24.24 26.57,32.16 10.56,7.92 21.83,13.43 33.8,16.54 11.96,3.1 22.91,4.67 32.86,4.67 h 231.66 v -62"
         style="fill:#101838;fill-opacity:1;fill-rule:nonzero;stroke:none"
         transform="matrix(0.13333333,0,0,-0.13333333,0,895.38667)" />
      <path
         id="path15"
         d="m 3102.61,1520.33 c -13.37,-7.15 -23.55,-16.62 -30.54,-28.43 -6.99,-11.81 -11.49,-25.33 -13.52,-40.55 -2.02,-15.23 -3.02,-30.92 -3.02,-47.08 0,-16.16 1,-31.86 3.02,-47.07 2.03,-15.24 6.53,-28.75 13.52,-40.56 6.99,-11.82 17.17,-21.29 30.54,-28.44 13.36,-7.14 31.37,-10.71 54.07,-10.71 22.68,0 40.62,3.57 53.84,10.71 13.2,7.15 23.3,16.62 30.29,28.44 6.99,11.81 11.49,25.32 13.52,40.56 2.02,15.21 3.02,30.91 3.02,47.07 0,16.16 -1,31.85 -3.02,47.08 -2.03,15.22 -6.53,28.74 -13.52,40.55 -6.99,11.81 -17.09,21.28 -30.29,28.43 -13.22,7.15 -31.16,10.73 -53.84,10.73 -22.7,0 -40.71,-3.58 -54.07,-10.73 z m -118.64,-42.88 c 5.44,22.69 14.99,42.42 28.68,59.2 13.67,16.78 32.15,29.98 55.47,39.62 23.3,9.63 52.82,14.45 88.56,14.45 35.42,0 64.78,-4.82 88.1,-14.45 23.3,-9.64 41.78,-22.84 55.46,-39.62 13.68,-16.78 23.23,-36.51 28.67,-59.2 5.44,-22.68 8.16,-47.08 8.16,-73.18 0,-25.79 -2.72,-50.03 -8.16,-72.72 -5.44,-22.68 -14.99,-42.41 -28.67,-59.2 -13.68,-16.77 -32.16,-30.05 -55.46,-39.85 -23.32,-9.78 -52.68,-14.68 -88.1,-14.68 -35.74,0 -65.26,4.9 -88.56,14.68 -23.32,9.8 -41.8,23.08 -55.47,39.85 -13.69,16.79 -23.24,36.52 -28.68,59.2 -5.43,22.69 -8.15,46.93 -8.15,72.72 0,26.1 2.72,50.5 8.15,73.18"
         style="fill:#101838;fill-opacity:1;fill-rule:nonzero;stroke:none"
         transform="matrix(0.13333333,0,0,-0.13333333,0,895.38667)" />
      <path
         id="path16"
         d="m 3513.49,1229.94 c -15.08,4.66 -28.36,12.12 -39.86,22.38 -11.5,10.25 -20.59,23.76 -27.27,40.55 -6.68,16.78 -10.02,37.29 -10.02,61.53 v 231.2 h 76.44 v -226.08 c 0,-10.88 1.71,-20.82 5.13,-29.83 3.42,-9.02 8.31,-16.86 14.69,-23.54 6.36,-6.69 14.13,-11.88 23.3,-15.61 9.16,-3.73 19.65,-5.6 31.46,-5.6 h 99.76 v -61.99 h -125.86 c -16.78,0 -32.71,2.33 -47.77,6.99"
         style="fill:#101838;fill-opacity:1;fill-rule:nonzero;stroke:none"
         transform="matrix(0.13333333,0,0,-0.13333333,0,895.38667)" />
      <path
         id="path17"
         d="m 3848.86,1585.6 v -242.86 c 0,-20.5 7.15,-36.52 21.44,-48 14.29,-11.51 34.65,-17.25 61.07,-17.25 26.09,0 46.3,5.74 60.59,17.25 14.29,11.48 21.44,27.5 21.44,48 v 242.86 h 76.44 v -245.66 c 0,-19.57 -4.04,-36.89 -12.12,-51.97 -8.08,-15.07 -19.18,-27.81 -33.33,-38.21 -14.14,-10.42 -30.84,-18.34 -50.1,-23.78 -19.27,-5.43 -40.25,-8.16 -62.92,-8.16 -22.7,0 -43.75,2.73 -63.17,8.16 -19.42,5.44 -36.2,13.36 -50.34,23.78 -14.14,10.4 -25.25,23.14 -33.33,38.21 -8.08,15.08 -12.12,32.4 -12.12,51.97 v 245.66 h 76.45"
         style="fill:#101838;fill-opacity:1;fill-rule:nonzero;stroke:none"
         transform="matrix(0.13333333,0,0,-0.13333333,0,895.38667)" />
      <path
         id="path18"
         d="m 4401.68,1164.69 c -2.49,-2.49 -5.44,-3.73 -8.86,-3.73 h -49.87 v 30.76 h 24.71 c 4.34,0 6.52,2.18 6.52,6.52 v 24.71 h -34.96 c -49.1,0 -86.39,15.54 -111.87,46.61 -25.48,31.08 -38.22,75.98 -38.22,134.71 0,58.74 12.74,103.63 38.22,134.71 25.48,31.07 62.77,46.62 111.87,46.62 h 153.36 v -62 h -130.99 c -31.38,0 -53.91,-10.18 -67.59,-30.53 -13.67,-20.35 -20.5,-49.95 -20.5,-88.8 0,-38.85 6.83,-68.45 20.5,-88.79 13.68,-20.36 36.21,-30.54 67.59,-30.54 h 130.99 v -61.99 h -87.17 v -49.4 c 0,-3.42 -1.24,-6.37 -3.73,-8.86"
         style="fill:#101838;fill-opacity:1;fill-rule:nonzero;stroke:none"
         transform="matrix(0.13333333,0,0,-0.13333333,0,895.38667)" />
      <path
         id="path19"
         d="m 4769.45,1654.82 c 1.55,-3.58 4.96,-5.37 10.26,-5.37 5.58,0 9.16,1.79 10.71,5.37 1.55,3.56 2.33,7.52 2.33,11.88 v 29.83 h 25.18 v -42.88 c 0,-12.75 -3.58,-22.46 -10.72,-29.14 -7.16,-6.68 -16.32,-10.02 -27.5,-10.02 -10.89,0 -19.9,3.34 -27.04,10.02 -7.15,6.68 -10.73,16.39 -10.73,29.14 0,4.35 -0.77,8.3 -2.32,11.89 -1.56,3.56 -4.98,5.36 -10.25,5.36 -5.6,0 -9.17,-1.8 -10.73,-5.36 -1.56,-3.59 -2.33,-7.54 -2.33,-11.89 v -29.83 h -25.17 v 42.88 c 0,12.73 3.57,22.45 10.73,29.13 7.13,6.68 16.3,10.02 27.5,10.02 10.86,0 19.88,-3.34 27.03,-10.02 7.14,-6.68 10.72,-16.4 10.72,-29.13 0,-4.36 0.77,-8.32 2.33,-11.88 z m -73.18,-134.49 c -13.37,-7.15 -23.55,-16.62 -30.54,-28.43 -6.99,-11.81 -11.49,-25.33 -13.51,-40.55 -2.02,-15.23 -3.03,-30.92 -3.03,-47.08 0,-16.16 1.01,-31.86 3.03,-47.07 2.02,-15.24 6.52,-28.75 13.51,-40.56 6.99,-11.82 17.17,-21.29 30.54,-28.44 13.36,-7.14 31.38,-10.71 54.07,-10.71 22.68,0 40.63,3.57 53.84,10.71 13.2,7.15 23.3,16.62 30.29,28.44 6.99,11.81 11.5,25.32 13.52,40.56 2.02,15.21 3.03,30.91 3.03,47.07 0,16.16 -1.01,31.85 -3.03,47.08 -2.02,15.22 -6.53,28.74 -13.52,40.55 -6.99,11.81 -17.09,21.28 -30.29,28.43 -13.21,7.15 -31.16,10.73 -53.84,10.73 -22.69,0 -40.71,-3.58 -54.07,-10.73 z m -118.63,-42.88 c 5.44,22.69 14.99,42.42 28.67,59.2 13.67,16.78 32.16,29.98 55.47,39.62 23.3,9.63 52.82,14.45 88.56,14.45 35.42,0 64.79,-4.82 88.1,-14.45 23.3,-9.64 41.78,-22.84 55.47,-39.62 13.67,-16.78 23.22,-36.51 28.66,-59.2 5.44,-22.68 8.16,-47.08 8.16,-73.18 0,-25.79 -2.72,-50.03 -8.16,-72.72 -5.44,-22.68 -14.99,-42.41 -28.66,-59.2 -13.69,-16.77 -32.17,-30.05 -55.47,-39.85 -23.31,-9.78 -52.68,-14.68 -88.1,-14.68 -35.74,0 -65.26,4.9 -88.56,14.68 -23.31,9.8 -41.8,23.08 -55.47,39.85 -13.68,16.79 -23.23,36.52 -28.67,59.2 -5.44,22.69 -8.16,46.93 -8.16,72.72 0,26.1 2.72,50.5 8.16,73.18"
         style="fill:#101838;fill-opacity:1;fill-rule:nonzero;stroke:none"
         transform="matrix(0.13333333,0,0,-0.13333333,0,895.38667)" />
      <path
         id="path20"
         d="m 5313.87,1374.44 h -204.16 c 4.34,-31.7 13.29,-54.54 26.8,-68.52 13.52,-13.99 33.48,-20.98 59.9,-20.98 h 123.05 v -61.99 h -144.03 c -49.1,0 -86.39,15.54 -111.87,46.61 -25.48,31.08 -38.22,75.98 -38.22,134.71 0,58.74 12.74,103.63 38.22,134.71 25.48,31.07 62.77,46.62 111.87,46.62 h 144.03 v -62 h -123.05 c -8.39,0 -17.17,-0.78 -26.34,-2.33 -9.17,-1.56 -17.79,-5.29 -25.87,-11.19 -8.08,-5.91 -15.15,-14.85 -21.2,-26.8 -6.07,-11.97 -10.49,-28.36 -13.29,-49.18 h 204.16 v -59.66"
         style="fill:#101838;fill-opacity:1;fill-rule:nonzero;stroke:none"
         transform="matrix(0.13333333,0,0,-0.13333333,0,895.38667)" />
      <path
         id="path21"
         d="m 5740.38,1523.6 h -196.7 c -12.43,0 -23.31,-3.58 -32.63,-10.72 -9.32,-7.16 -13.98,-18.03 -13.98,-32.63 0,-8.08 1.23,-14.84 3.73,-20.28 2.48,-5.44 5.9,-9.86 10.25,-13.28 4.35,-3.43 9.32,-5.91 14.92,-7.46 5.59,-1.55 11.49,-2.33 17.71,-2.33 h 112.34 c 9.62,0 20.43,-1.63 32.39,-4.9 11.96,-3.26 23.23,-8.93 33.8,-17.01 10.55,-8.09 19.41,-19.03 26.56,-32.86 7.15,-13.83 10.72,-31.31 10.72,-52.44 0,-21.13 -3.57,-38.54 -10.72,-52.2 -7.15,-13.68 -16.01,-24.56 -26.56,-32.64 -10.57,-8.07 -21.84,-13.75 -33.8,-17.01 -11.96,-3.26 -22.77,-4.89 -32.39,-4.89 h -235.86 v 61.99 h 200.43 c 6.53,0 12.66,1.17 18.41,3.5 5.75,2.33 10.73,5.44 14.92,9.32 4.2,3.88 7.53,8.55 10.02,13.99 2.49,5.43 3.73,11.41 3.73,17.94 0,13.05 -4.59,23.78 -13.75,32.17 -9.17,8.38 -20.28,12.58 -33.33,12.58 h -111.87 c -9.95,0 -20.9,1.55 -32.86,4.66 -11.96,3.11 -23.23,8.63 -33.8,16.55 -10.57,7.92 -19.42,18.72 -26.56,32.4 -7.16,13.67 -10.72,31.06 -10.72,52.2 0,21.13 3.56,38.45 10.72,51.98 7.14,13.51 15.99,24.24 26.56,32.16 10.57,7.92 21.84,13.43 33.8,16.54 11.96,3.1 22.91,4.67 32.86,4.67 h 231.66 v -62"
         style="fill:#101838;fill-opacity:1;fill-rule:nonzero;stroke:none"
         transform="matrix(0.13333333,0,0,-0.13333333,0,895.38667)" />
      <path
         id="path22"
         d="m 6381.28,1374.44 h -204.16 c 4.34,-31.7 13.29,-54.54 26.81,-68.52 13.51,-13.99 33.47,-20.98 59.89,-20.98 h 123.06 v -61.99 h -144.04 c -49.1,0 -86.38,15.54 -111.86,46.61 -25.49,31.08 -38.23,75.98 -38.23,134.71 0,58.74 12.74,103.63 38.23,134.71 25.48,31.07 62.76,46.62 111.86,46.62 h 144.04 v -62 h -123.06 c -8.39,0 -17.17,-0.78 -26.34,-2.33 -9.17,-1.56 -17.79,-5.29 -25.87,-11.19 -8.07,-5.91 -15.15,-14.85 -21.2,-26.8 -6.06,-11.97 -10.49,-28.36 -13.29,-49.18 h 204.16 v -59.66"
         style="fill:#101838;fill-opacity:1;fill-rule:nonzero;stroke:none"
         transform="matrix(0.13333333,0,0,-0.13333333,0,895.38667)" />
      <path
         id="path23"
         d="m 6486.16,1222.95 v 362.65 h 114.67 l 93.69,-279.68 93.69,279.68 h 114.67 v -362.65 h -76.44 v 270.82 h -2.34 l -91.82,-270.82 h -75.51 l -92.3,270.82 h -1.86 v -270.82 h -76.45"
         style="fill:#101838;fill-opacity:1;fill-rule:nonzero;stroke:none"
         transform="matrix(0.13333333,0,0,-0.13333333,0,895.38667)" />
      <path
         id="path24"
         d="M 5577.11,5616.41 V 3967.73 c -0.23,-303.32 -245.96,-549.05 -549.28,-549.27 H 3928.86 l 549.48,549.49 h 274.54 c 151.88,0 274.74,122.87 274.74,274.75 v 274.52 549.49 l -1373.72,0.21 c -151.66,0 -274.74,-123.08 -274.74,-274.74 v -2472.7 h -549.49 v 549.27 0.23 549.26 549.49 549.49 549.49 0.21 c 0,303.54 246.16,549.49 549.49,549.49 h 0.21 549.27 549.49 549.49 549.49"
         style="fill:#101838;fill-opacity:1;fill-rule:nonzero;stroke:none"
         transform="matrix(0.13333333,0,0,-0.13333333,0,895.38667)" />
      <path
         id="path25"
         d="M 6676.08,6715.39 V 3967.73 c 0,-192.54 -32.96,-377.61 -93.85,-549.27 -19.35,-54.95 -41.55,-108.36 -66.38,-160.45 -67.92,-142.21 -155.62,-272.98 -259.58,-389.03 -40.66,-45.73 -83.97,-89.02 -129.68,-129.68 -116.04,-103.97 -246.82,-191.66 -389.04,-259.81 -52.08,-24.61 -105.49,-46.81 -160.44,-66.15 -171.66,-60.89 -356.51,-93.86 -549.28,-93.86 H 3928.86 l 549.48,549.5 h 549.28 0.21 c 200.02,0 387.73,53.4 549.28,146.82 166.82,96.71 305.95,235.84 402.44,402.66 93.41,161.55 147.04,349.26 147.04,549.27 v 0.22 549.27 0.22 549.27 0.21 549.49 549.27 l -1648.25,0.23 549.49,549.48 h 549.28 549.48 549.49"
         style="fill:#f2574c;fill-opacity:1;fill-rule:nonzero;stroke:none"
         transform="matrix(0.13333333,0,0,-0.13333333,0,895.38667)" />
    </g>
  </g>
</svg>
