<?xml version="1.0" encoding="UTF-8" standalone="no"?>
<!-- Created with Inkscape (http://www.inkscape.org/) -->

<svg
   version="1.1"
   id="svg1"
   width="1222.5601"
   height="225.05333"
   viewBox="0 0 1222.5601 225.05333"
   sodipodi:docname="LOGO PJ SOLUÇÕES EM REFRIGERAÇÃO HORIZONTAL.eps"
   xmlns:inkscape="http://www.inkscape.org/namespaces/inkscape"
   xmlns:sodipodi="http://sodipodi.sourceforge.net/DTD/sodipodi-0.dtd"
   xmlns="http://www.w3.org/2000/svg"
   xmlns:svg="http://www.w3.org/2000/svg">
  <defs
     id="defs1" />
  <sodipodi:namedview
     id="namedview1"
     pagecolor="#ffffff"
     bordercolor="#000000"
     borderopacity="0.25"
     inkscape:showpageshadow="2"
     inkscape:pageopacity="0.0"
     inkscape:pagecheckerboard="0"
     inkscape:deskcolor="#d1d1d1">
    <inkscape:page
       x="0"
       y="0"
       inkscape:label="1"
       id="page1"
       width="1222.5601"
       height="225.05333"
       margin="0"
       bleed="0" />
  </sodipodi:namedview>
  <g
     id="g1"
     inkscape:groupmode="layer"
     inkscape:label="1">
    <g
       id="group-R5">
      <path
         id="path2"
         d="m 2013.75,592.398 h 138.07 c 12.46,0 23.97,1.192 34.51,3.59 10.55,2.403 19.79,6.582 27.7,12.59 7.91,5.992 14.13,13.902 18.69,23.731 4.55,9.832 6.84,22.402 6.84,37.75 0,14.863 -2.29,27.332 -6.84,37.398 -4.56,10.07 -10.78,18.098 -18.69,24.094 -7.91,5.996 -17.15,10.183 -27.7,12.586 -10.54,2.394 -22.05,3.593 -34.51,3.593 h -138.07 z m 0,-88.457 V 283.879 h -117.94 v 559.5 h 318.57 c 24.92,0 47.58,-3.234 67.96,-9.711 20.38,-6.473 37.87,-16.543 52.5,-30.203 14.62,-13.664 25.89,-31.172 33.8,-52.492 7.91,-21.348 11.86,-47.11 11.86,-77.313 0,-32.121 -4.2,-58.25 -12.57,-78.39 -8.4,-20.141 -18.24,-36.071 -29.5,-47.821 -11.27,-11.75 -22.77,-20.258 -34.51,-25.527 -11.76,-5.281 -21.22,-8.883 -28.41,-10.793 l 120.1,-227.25 h -140.23 l -113.63,220.062 h -128"
         style="fill:#101838;fill-opacity:1;fill-rule:nonzero;stroke:none"
         transform="matrix(0.13333333,0,0,-0.13333333,0,225.05333)" />
      <path
         id="path3"
         d="m 2971.64,517.602 h -314.99 c 6.71,-48.891 20.49,-84.141 41.34,-105.711 20.86,-21.571 51.66,-32.36 92.42,-32.36 h 189.85 v -95.652 h -222.22 c -75.75,0 -133.28,23.973 -172.58,71.922 -39.32,47.937 -58.98,117.211 -58.98,207.828 0,90.609 19.66,159.894 58.98,207.832 39.3,47.941 96.83,71.918 172.58,71.918 h 222.22 V 747.73 h -189.85 c -12.94,0 -26.5,-1.199 -40.63,-3.593 -14.15,-2.403 -27.45,-8.153 -39.91,-17.254 -12.48,-9.121 -23.38,-22.903 -32.73,-41.363 -9.34,-18.45 -16.18,-43.75 -20.49,-75.872 h 314.99 v -92.046"
         style="fill:#101838;fill-opacity:1;fill-rule:nonzero;stroke:none"
         transform="matrix(0.13333333,0,0,-0.13333333,0,225.05333)" />
      <path
         id="path4"
         d="m 3572.84,747.73 h -177.63 c -16.79,0 -33.69,-1.679 -50.7,-5.027 -17.02,-3.359 -32.37,-9.961 -46.03,-19.777 -13.66,-9.832 -24.93,-23.856 -33.8,-42.067 -8.87,-18.238 -13.3,-41.968 -13.3,-71.211 h 312.83 V 517.602 H 3251.38 V 283.879 h -117.94 v 290.543 c 0,39.308 3.83,75.379 11.51,108.226 7.66,32.836 20.73,61.129 39.19,84.86 18.45,23.73 43.02,42.305 73.71,55.73 30.68,13.422 68.8,20.141 114.34,20.141 h 200.65 V 747.73"
         style="fill:#101838;fill-opacity:1;fill-rule:nonzero;stroke:none"
         transform="matrix(0.13333333,0,0,-0.13333333,0,225.05333)" />
      <path
         id="path5"
         d="m 3843.96,592.398 h 138.08 c 12.46,0 23.96,1.192 34.51,3.59 10.55,2.403 19.78,6.582 27.69,12.59 7.91,5.992 14.14,13.902 18.7,23.731 4.55,9.832 6.83,22.402 6.83,37.75 0,14.863 -2.28,27.332 -6.83,37.398 -4.56,10.07 -10.79,18.098 -18.7,24.094 -7.91,5.996 -17.14,10.183 -27.69,12.586 -10.55,2.394 -22.05,3.593 -34.51,3.593 h -138.08 z m 0,-88.457 V 283.879 h -117.94 v 559.5 h 318.58 c 24.92,0 47.57,-3.234 67.95,-9.711 20.39,-6.473 37.88,-16.543 52.5,-30.203 14.62,-13.664 25.89,-31.172 33.8,-52.492 7.91,-21.348 11.87,-47.11 11.87,-77.313 0,-32.121 -4.2,-58.25 -12.58,-78.39 -8.4,-20.141 -18.23,-36.071 -29.49,-47.821 -11.27,-11.75 -22.77,-20.258 -34.51,-25.527 -11.76,-5.281 -21.22,-8.883 -28.41,-10.793 l 120.1,-227.25 h -140.24 l -113.62,220.062 h -128.01"
         style="fill:#101838;fill-opacity:1;fill-rule:nonzero;stroke:none"
         transform="matrix(0.13333333,0,0,-0.13333333,0,225.05333)" />
      <path
         id="path6"
         d="m 4385.47,283.879 v 559.5 h 117.93 v -559.5 h -117.93"
         style="fill:#101838;fill-opacity:1;fill-rule:nonzero;stroke:none"
         transform="matrix(0.13333333,0,0,-0.13333333,0,225.05333)" />
      <path
         id="path7"
         d="m 4715.54,355.801 c -39.31,47.937 -58.97,117.211 -58.97,207.828 0,90.609 19.66,159.894 58.97,207.832 39.31,47.941 96.84,71.918 172.59,71.918 h 295.58 V 747.73 h -261.06 c -48.43,0 -83.18,-15.703 -104.27,-47.097 -21.11,-31.403 -31.65,-77.074 -31.65,-137.004 0,-59.93 10.54,-105.598 31.65,-136.988 21.09,-31.411 55.84,-47.11 104.27,-47.11 h 143.12 v 138.071 h -155.34 v 92.046 h 273.28 V 283.879 h -295.58 c -75.75,0 -133.28,23.973 -172.59,71.922"
         style="fill:#101838;fill-opacity:1;fill-rule:nonzero;stroke:none"
         transform="matrix(0.13333333,0,0,-0.13333333,0,225.05333)" />
      <path
         id="path8"
         d="m 5774.85,517.602 h -314.99 c 6.71,-48.891 20.5,-84.141 41.35,-105.711 20.86,-21.571 51.66,-32.36 92.41,-32.36 h 189.85 v -95.652 h -222.21 c -75.76,0 -133.29,23.973 -172.59,71.922 -39.32,47.937 -58.98,117.211 -58.98,207.828 0,90.609 19.66,159.894 58.98,207.832 39.3,47.941 96.83,71.918 172.59,71.918 h 222.21 V 747.73 h -189.85 c -12.94,0 -26.49,-1.199 -40.63,-3.593 -14.15,-2.403 -27.45,-8.153 -39.91,-17.254 -12.48,-9.121 -23.38,-22.903 -32.72,-41.363 -9.35,-18.45 -16.18,-43.75 -20.5,-75.872 h 314.99 v -92.046"
         style="fill:#101838;fill-opacity:1;fill-rule:nonzero;stroke:none"
         transform="matrix(0.13333333,0,0,-0.13333333,0,225.05333)" />
      <path
         id="path9"
         d="m 6054.6,592.398 h 138.07 c 12.46,0 23.97,1.192 34.51,3.59 10.55,2.403 19.79,6.582 27.7,12.59 7.91,5.992 14.13,13.902 18.69,23.731 4.55,9.832 6.84,22.402 6.84,37.75 0,14.863 -2.29,27.332 -6.84,37.398 -4.56,10.07 -10.78,18.098 -18.69,24.094 -7.91,5.996 -17.15,10.183 -27.7,12.586 -10.54,2.394 -22.05,3.593 -34.51,3.593 H 6054.6 Z m 0,-88.457 V 283.879 h -117.94 v 559.5 h 318.57 c 24.92,0 47.58,-3.234 67.96,-9.711 20.38,-6.473 37.87,-16.543 52.5,-30.203 14.62,-13.664 25.89,-31.172 33.8,-52.492 7.91,-21.348 11.86,-47.11 11.86,-77.313 0,-32.121 -4.2,-58.25 -12.57,-78.39 -8.4,-20.141 -18.24,-36.071 -29.5,-47.821 -11.27,-11.75 -22.77,-20.258 -34.51,-25.527 -11.76,-5.281 -21.22,-8.883 -28.41,-10.793 l 120.1,-227.25 H 6296.23 L 6182.6,503.941 h -128"
         style="fill:#101838;fill-opacity:1;fill-rule:nonzero;stroke:none"
         transform="matrix(0.13333333,0,0,-0.13333333,0,225.05333)" />
      <path
         id="path10"
         d="m 6775.89,507.539 h 159.65 l -79.82,199.207 z m 20.14,335.84 h 119.38 l 235.88,-559.5 h -125.85 l -54.66,135.922 H 6740.65 L 6686,283.879 h -125.86 l 235.89,559.5"
         style="fill:#101838;fill-opacity:1;fill-rule:nonzero;stroke:none"
         transform="matrix(0.13333333,0,0,-0.13333333,0,225.05333)" />
      <path
         id="path11"
         d="m 7610.82,193.988 c -3.84,-3.828 -8.39,-5.75 -13.67,-5.75 h -76.94 v 47.461 h 38.12 c 6.7,0 10.06,3.36 10.06,10.071 v 38.109 h -53.94 c -75.75,0 -133.28,23.973 -172.59,71.922 -39.31,47.937 -58.97,117.211 -58.97,207.828 0,90.609 19.66,159.894 58.97,207.832 39.31,47.941 96.84,71.918 172.59,71.918 h 236.6 V 747.73 h -202.08 c -48.43,0 -83.18,-15.703 -104.28,-47.097 -21.1,-31.403 -31.64,-77.074 -31.64,-137.004 0,-59.93 10.54,-105.598 31.64,-136.988 21.1,-31.411 55.85,-47.11 104.28,-47.11 h 202.08 v -95.652 h -134.48 v -76.231 c 0,-5.269 -1.92,-9.82 -5.75,-13.66"
         style="fill:#101838;fill-opacity:1;fill-rule:nonzero;stroke:none"
         transform="matrix(0.13333333,0,0,-0.13333333,0,225.05333)" />
      <path
         id="path12"
         d="m 8104.86,507.539 h 159.65 l -79.83,199.207 z m 106.43,442.633 c 2.39,-5.516 7.66,-8.27 15.82,-8.27 8.63,0 14.14,2.754 16.54,8.27 2.39,5.508 3.59,11.617 3.59,18.34 v 46.028 h 38.84 v -66.165 c 0,-19.664 -5.52,-34.645 -16.54,-44.945 -11.04,-10.317 -25.17,-15.465 -42.43,-15.465 -16.79,0 -30.69,5.148 -41.71,15.465 -11.04,10.3 -16.54,25.281 -16.54,44.945 0,6.711 -1.21,12.824 -3.6,18.336 -2.4,5.508 -7.68,8.269 -15.82,8.269 -8.62,0 -14.14,-2.761 -16.53,-8.269 -2.42,-5.512 -3.61,-11.625 -3.61,-18.336 v -46.023 h -38.83 v 66.16 c 0,19.652 5.51,34.628 16.54,44.948 11.02,10.3 25.17,15.46 42.43,15.46 16.78,0 30.68,-5.16 41.71,-15.46 11.02,-10.32 16.54,-25.296 16.54,-44.948 0,-6.723 1.19,-12.832 3.6,-18.34 z M 8125,843.379 h 119.37 l 235.88,-559.5 H 8354.4 l -54.66,135.922 h -230.12 l -54.65,-135.922 h -125.86 l 235.89,559.5"
         style="fill:#101838;fill-opacity:1;fill-rule:nonzero;stroke:none"
         transform="matrix(0.13333333,0,0,-0.13333333,0,225.05333)" />
      <path
         id="path13"
         d="m 8807.46,742.703 c -20.62,-11.035 -36.31,-25.656 -47.1,-43.867 -10.79,-18.234 -17.75,-39.086 -20.86,-62.566 -3.12,-23.5 -4.67,-47.719 -4.67,-72.641 0,-24.93 1.55,-49.149 4.67,-72.641 3.11,-23.476 10.07,-44.34 20.86,-62.558 10.79,-18.231 26.48,-32.852 47.1,-43.86 20.61,-11.039 48.43,-16.55 83.43,-16.55 34.99,0 62.67,5.511 83.05,16.55 20.37,11.008 35.96,25.629 46.75,43.86 10.78,18.218 17.73,39.082 20.85,62.558 3.11,23.492 4.68,47.711 4.68,72.641 0,24.922 -1.57,49.141 -4.68,72.641 -3.12,23.48 -10.07,44.332 -20.85,62.566 -10.79,18.211 -26.38,32.832 -46.75,43.867 -20.38,11.016 -48.06,16.531 -83.05,16.531 -35,0 -62.82,-5.515 -83.43,-16.531 z m -183.02,-66.164 c 8.38,34.992 23.12,65.441 44.23,91.328 21.09,25.891 49.62,46.262 85.57,61.133 35.96,14.848 81.51,22.289 136.65,22.289 54.64,0 99.96,-7.441 135.91,-22.289 35.96,-14.871 64.48,-35.242 85.58,-61.133 21.09,-25.887 35.83,-56.336 44.23,-91.328 8.38,-35 12.59,-72.641 12.59,-112.91 0,-39.801 -4.21,-77.199 -12.59,-112.188 -8.4,-35 -23.14,-65.441 -44.23,-91.332 -21.1,-25.879 -49.62,-46.379 -85.58,-61.48 -35.95,-15.109 -81.27,-22.66 -135.91,-22.66 -55.14,0 -100.69,7.551 -136.65,22.66 -35.95,15.101 -64.48,35.601 -85.57,61.48 -21.11,25.891 -35.85,56.332 -44.23,91.332 -8.4,34.989 -12.59,72.387 -12.59,112.188 0,40.269 4.19,77.91 12.59,112.91"
         style="fill:#101838;fill-opacity:1;fill-rule:nonzero;stroke:none"
         transform="matrix(0.13333333,0,0,-0.13333333,0,225.05333)" />
      <path
         id="path14"
         d="m 2155.28,1357.27 h -150.53 c -9.51,0 -17.83,-2.74 -24.97,-8.21 -7.13,-5.47 -10.69,-13.79 -10.69,-24.97 0,-6.18 0.95,-11.36 2.85,-15.51 1.89,-4.17 4.51,-7.55 7.84,-10.17 3.33,-2.62 7.14,-4.52 11.42,-5.7 4.27,-1.19 8.8,-1.78 13.55,-1.78 h 85.97 c 7.36,0 15.62,-1.25 24.78,-3.75 9.15,-2.5 17.78,-6.84 25.86,-13.02 8.09,-6.19 14.87,-14.57 20.34,-25.15 5.46,-10.58 8.2,-23.96 8.2,-40.13 0,-16.17 -2.74,-29.49 -8.2,-39.94 -5.47,-10.47 -12.25,-18.79 -20.34,-24.98 -8.08,-6.18 -16.71,-10.51 -25.86,-13.01 -9.16,-2.5 -17.42,-3.75 -24.78,-3.75 h -180.49 v 47.44 h 153.38 c 4.99,0 9.69,0.9 14.08,2.68 4.41,1.78 8.2,4.16 11.42,7.13 3.21,2.97 5.76,6.54 7.66,10.7 1.91,4.16 2.87,8.74 2.87,13.73 0,10 -3.52,18.2 -10.53,24.62 -7.01,6.42 -15.52,9.63 -25.5,9.63 H 1978 c -7.61,0 -15.99,1.18 -25.14,3.57 -9.16,2.37 -17.79,6.59 -25.86,12.66 -8.09,6.06 -14.86,14.32 -20.33,24.79 -5.48,10.46 -8.21,23.77 -8.21,39.94 0,16.17 2.73,29.43 8.21,39.77 5.47,10.35 12.24,18.55 20.33,24.62 8.07,6.06 16.7,10.28 25.86,12.66 9.15,2.37 17.53,3.56 25.14,3.56 h 177.28 v -47.43"
         style="fill:#101838;fill-opacity:1;fill-rule:nonzero;stroke:none"
         transform="matrix(0.13333333,0,0,-0.13333333,0,225.05333)" />
      <path
         id="path15"
         d="m 2335.4,1354.77 c -10.23,-5.47 -18.01,-12.72 -23.36,-21.75 -5.35,-9.05 -8.8,-19.39 -10.34,-31.04 -1.56,-11.65 -2.33,-23.66 -2.33,-36.03 0,-12.36 0.77,-24.37 2.33,-36.02 1.54,-11.65 4.99,-22 10.34,-31.03 5.35,-9.04 13.13,-16.29 23.36,-21.76 10.22,-5.47 24.02,-8.2 41.37,-8.2 17.36,0 31.1,2.73 41.2,8.2 10.11,5.47 17.84,12.72 23.19,21.76 5.35,9.03 8.8,19.38 10.34,31.03 1.54,11.65 2.32,23.66 2.32,36.02 0,12.37 -0.78,24.38 -2.32,36.03 -1.54,11.65 -4.99,21.99 -10.34,31.04 -5.35,9.03 -13.08,16.28 -23.19,21.75 -10.1,5.46 -23.84,8.21 -41.2,8.21 -17.35,0 -31.15,-2.75 -41.37,-8.21 z m -90.77,-32.82 c 4.16,17.36 11.46,32.46 21.93,45.3 10.46,12.84 24.61,22.95 42.45,30.32 17.83,7.37 40.42,11.06 67.76,11.06 27.11,0 49.58,-3.69 67.42,-11.06 17.84,-7.37 31.98,-17.48 42.45,-30.32 10.46,-12.84 17.77,-27.94 21.93,-45.3 4.16,-17.35 6.24,-36.02 6.24,-56 0,-19.74 -2.08,-38.28 -6.24,-55.64 -4.16,-17.36 -11.47,-32.46 -21.93,-45.3 -10.47,-12.84 -24.61,-23 -42.45,-30.49 -17.84,-7.5 -40.31,-11.24 -67.42,-11.24 -27.34,0 -49.93,3.74 -67.76,11.24 -17.84,7.49 -31.99,17.65 -42.45,30.49 -10.47,12.84 -17.77,27.94 -21.93,45.3 -4.16,17.36 -6.24,35.9 -6.24,55.64 0,19.98 2.08,38.65 6.24,56"
         style="fill:#101838;fill-opacity:1;fill-rule:nonzero;stroke:none"
         transform="matrix(0.13333333,0,0,-0.13333333,0,225.05333)" />
      <path
         id="path16"
         d="m 2649.82,1132.55 c -11.54,3.57 -21.7,9.28 -30.5,17.13 -8.8,7.84 -15.75,18.19 -20.87,31.02 -5.11,12.85 -7.66,28.54 -7.66,47.09 v 176.91 h 58.49 v -172.99 c 0,-8.32 1.31,-15.93 3.93,-22.83 2.61,-6.9 6.36,-12.9 11.23,-18.01 4.87,-5.11 10.82,-9.09 17.84,-11.95 7.01,-2.85 15.03,-4.28 24.07,-4.28 h 76.33 v -47.44 h -96.3 c -12.84,0 -25.03,1.78 -36.56,5.35"
         style="fill:#101838;fill-opacity:1;fill-rule:nonzero;stroke:none"
         transform="matrix(0.13333333,0,0,-0.13333333,0,225.05333)" />
      <path
         id="path17"
         d="m 2906.45,1404.7 v -185.82 c 0,-15.7 5.47,-27.95 16.41,-36.74 10.94,-8.81 26.51,-13.2 46.73,-13.2 19.97,0 35.43,4.39 46.36,13.2 10.94,8.79 16.41,21.04 16.41,36.74 v 185.82 h 58.5 v -187.97 c 0,-14.98 -3.09,-28.24 -9.27,-39.77 -6.19,-11.53 -14.69,-21.28 -25.51,-29.25 -10.82,-7.97 -23.6,-14.03 -38.34,-18.19 -14.75,-4.16 -30.8,-6.24 -48.15,-6.24 -17.37,0 -33.48,2.08 -48.33,6.24 -14.87,4.16 -27.71,10.22 -38.53,18.19 -10.82,7.97 -19.32,17.72 -25.5,29.25 -6.19,11.53 -9.27,24.79 -9.27,39.77 v 187.97 h 58.49"
         style="fill:#101838;fill-opacity:1;fill-rule:nonzero;stroke:none"
         transform="matrix(0.13333333,0,0,-0.13333333,0,225.05333)" />
      <path
         id="path18"
         d="m 3329.48,1082.62 c -1.91,-1.9 -4.16,-2.86 -6.78,-2.86 h -38.16 v 23.55 h 18.9 c 3.32,0 4.99,1.66 4.99,4.99 v 18.9 h -26.74 c -37.58,0 -66.12,11.89 -85.61,35.68 -19.5,23.77 -29.25,58.13 -29.25,103.07 0,44.94 9.75,79.3 29.25,103.09 19.49,23.77 48.03,35.66 85.61,35.66 h 117.34 v -47.43 H 3298.8 c -24.02,0 -41.25,-7.8 -51.71,-23.37 -10.47,-15.57 -15.7,-38.22 -15.7,-67.95 0,-29.72 5.23,-52.38 15.7,-67.95 10.46,-15.57 27.69,-23.36 51.71,-23.36 h 100.23 v -47.44 h -66.7 v -37.81 c 0,-2.61 -0.95,-4.87 -2.85,-6.77"
         style="fill:#101838;fill-opacity:1;fill-rule:nonzero;stroke:none"
         transform="matrix(0.13333333,0,0,-0.13333333,0,225.05333)" />
      <path
         id="path19"
         d="m 3610.9,1457.67 c 1.19,-2.73 3.8,-4.1 7.85,-4.1 4.28,0 7.01,1.37 8.2,4.1 1.19,2.74 1.79,5.76 1.79,9.1 v 22.83 h 19.25 v -32.81 c 0,-9.76 -2.73,-17.19 -8.2,-22.3 -5.47,-5.12 -12.48,-7.67 -21.04,-7.67 -8.32,0 -15.22,2.55 -20.69,7.67 -5.47,5.11 -8.2,12.54 -8.2,22.3 0,3.32 -0.6,6.35 -1.79,9.09 -1.19,2.73 -3.81,4.1 -7.84,4.1 -4.29,0 -7.02,-1.37 -8.2,-4.1 -1.19,-2.74 -1.79,-5.77 -1.79,-9.09 v -22.84 h -19.26 v 32.82 c 0,9.75 2.73,17.18 8.21,22.29 5.46,5.11 12.48,7.67 21.04,7.67 8.32,0 15.22,-2.56 20.68,-7.67 5.47,-5.11 8.21,-12.54 8.21,-22.29 0,-3.34 0.59,-6.36 1.78,-9.1 z m -56,-102.9 c -10.23,-5.47 -18.01,-12.72 -23.36,-21.75 -5.35,-9.05 -8.8,-19.39 -10.34,-31.04 -1.56,-11.65 -2.33,-23.66 -2.33,-36.03 0,-12.36 0.77,-24.37 2.33,-36.02 1.54,-11.65 4.99,-22 10.34,-31.03 5.35,-9.04 13.13,-16.29 23.36,-21.76 10.22,-5.47 24.02,-8.2 41.38,-8.2 17.35,0 31.09,2.73 41.2,8.2 10.1,5.47 17.83,12.72 23.18,21.76 5.35,9.03 8.8,19.38 10.34,31.03 1.55,11.65 2.33,23.66 2.33,36.02 0,12.37 -0.78,24.38 -2.33,36.03 -1.54,11.65 -4.99,21.99 -10.34,31.04 -5.35,9.03 -13.08,16.28 -23.18,21.75 -10.11,5.46 -23.85,8.21 -41.2,8.21 -17.36,0 -31.16,-2.75 -41.38,-8.21 z m -90.77,-32.82 c 4.16,17.36 11.46,32.46 21.93,45.3 10.46,12.84 24.61,22.95 42.45,30.32 17.83,7.37 40.42,11.06 67.77,11.06 27.11,0 49.58,-3.69 67.41,-11.06 17.84,-7.37 31.98,-17.48 42.45,-30.32 10.46,-12.84 17.77,-27.94 21.93,-45.3 4.16,-17.35 6.24,-36.02 6.24,-56 0,-19.74 -2.08,-38.28 -6.24,-55.64 -4.16,-17.36 -11.47,-32.46 -21.93,-45.3 -10.47,-12.84 -24.61,-23 -42.45,-30.49 -17.83,-7.5 -40.3,-11.24 -67.41,-11.24 -27.35,0 -49.94,3.74 -67.77,11.24 -17.84,7.49 -31.99,17.65 -42.45,30.49 -10.47,12.84 -17.77,27.94 -21.93,45.3 -4.16,17.36 -6.24,35.9 -6.24,55.64 0,19.98 2.08,38.65 6.24,56"
         style="fill:#101838;fill-opacity:1;fill-rule:nonzero;stroke:none"
         transform="matrix(0.13333333,0,0,-0.13333333,0,225.05333)" />
      <path
         id="path20"
         d="m 4027.52,1243.13 h -156.23 c 3.32,-24.25 10.16,-41.74 20.5,-52.43 10.35,-10.71 25.62,-16.06 45.83,-16.06 h 94.17 v -47.44 h -110.21 c -37.58,0 -66.11,11.89 -85.61,35.68 -19.5,23.77 -29.25,58.13 -29.25,103.07 0,44.94 9.75,79.3 29.25,103.09 19.5,23.77 48.03,35.66 85.61,35.66 h 110.21 v -47.43 h -94.17 c -6.41,0 -13.13,-0.6 -20.14,-1.79 -7.02,-1.19 -13.63,-4.04 -19.8,-8.56 -6.19,-4.52 -11.6,-11.36 -16.23,-20.51 -4.64,-9.15 -8.03,-21.7 -10.16,-37.63 h 156.23 v -45.65"
         style="fill:#101838;fill-opacity:1;fill-rule:nonzero;stroke:none"
         transform="matrix(0.13333333,0,0,-0.13333333,0,225.05333)" />
      <path
         id="path21"
         d="m 4353.88,1357.27 h -150.52 c -9.52,0 -17.84,-2.74 -24.97,-8.21 -7.13,-5.47 -10.7,-13.79 -10.7,-24.97 0,-6.18 0.95,-11.36 2.85,-15.51 1.9,-4.17 4.51,-7.55 7.85,-10.17 3.33,-2.62 7.13,-4.52 11.41,-5.7 4.28,-1.19 8.8,-1.78 13.56,-1.78 h 85.96 c 7.37,0 15.63,-1.25 24.79,-3.75 9.15,-2.5 17.77,-6.84 25.86,-13.02 8.08,-6.19 14.86,-14.57 20.33,-25.15 5.47,-10.58 8.2,-23.96 8.2,-40.13 0,-16.17 -2.73,-29.49 -8.2,-39.94 -5.47,-10.47 -12.25,-18.79 -20.33,-24.98 -8.09,-6.18 -16.71,-10.51 -25.86,-13.01 -9.16,-2.5 -17.42,-3.75 -24.79,-3.75 h -180.49 v 47.44 h 153.38 c 4.99,0 9.69,0.9 14.09,2.68 4.4,1.78 8.2,4.16 11.41,7.13 3.21,2.97 5.76,6.54 7.67,10.7 1.9,4.16 2.86,8.74 2.86,13.73 0,10 -3.52,18.2 -10.53,24.62 -7.01,6.42 -15.52,9.63 -25.5,9.63 h -85.6 c -7.62,0 -16,1.18 -25.15,3.57 -9.16,2.37 -17.78,6.59 -25.86,12.66 -8.08,6.06 -14.86,14.32 -20.33,24.79 -5.48,10.46 -8.2,23.77 -8.2,39.94 0,16.17 2.72,29.43 8.2,39.77 5.47,10.35 12.25,18.55 20.33,24.62 8.08,6.06 16.7,10.28 25.86,12.66 9.15,2.37 17.53,3.56 25.15,3.56 h 177.27 v -47.43"
         style="fill:#101838;fill-opacity:1;fill-rule:nonzero;stroke:none"
         transform="matrix(0.13333333,0,0,-0.13333333,0,225.05333)" />
      <path
         id="path22"
         d="m 4844.31,1243.13 h -156.23 c 3.32,-24.25 10.17,-41.74 20.51,-52.43 10.34,-10.71 25.62,-16.06 45.83,-16.06 h 94.17 v -47.44 h -110.21 c -37.58,0 -66.12,11.89 -85.61,35.68 -19.5,23.77 -29.25,58.13 -29.25,103.07 0,44.94 9.75,79.3 29.25,103.09 19.49,23.77 48.03,35.66 85.61,35.66 h 110.21 v -47.43 h -94.17 c -6.42,0 -13.13,-0.6 -20.15,-1.79 -7.02,-1.19 -13.62,-4.04 -19.79,-8.56 -6.19,-4.52 -11.6,-11.36 -16.23,-20.51 -4.64,-9.15 -8.03,-21.7 -10.17,-37.63 h 156.23 v -45.65"
         style="fill:#101838;fill-opacity:1;fill-rule:nonzero;stroke:none"
         transform="matrix(0.13333333,0,0,-0.13333333,0,225.05333)" />
      <path
         id="path23"
         d="m 4924.57,1127.2 v 277.5 h 87.74 l 71.7,-214 71.69,214 h 87.74 v -277.5 h -58.49 v 207.24 h -1.79 L 5112.9,1127.2 h -57.79 l -70.62,207.24 h -1.43 V 1127.2 h -58.49"
         style="fill:#101838;fill-opacity:1;fill-rule:nonzero;stroke:none"
         transform="matrix(0.13333333,0,0,-0.13333333,0,225.05333)" />
      <path
         id="path24"
         d="M 1054.91,1265.89 V 632.871 C 1054.83,516.398 960.477,422.059 844.012,421.969 H 422.047 l 210.984,210.98 h 105.403 c 58.32,0 105.5,47.172 105.5,105.496 v 105.403 210.982 l -527.461,0.08 c -58.235,0 -105.489,-47.26 -105.489,-105.484 V 0.0117188 H -0.00390625 V 210.898 v 0.082 210.899 210.992 210.977 210.982 0.08 c 0,116.55 94.52340625,210.98 210.98790625,210.98 h 0.079 210.906 210.976 210.989 210.976"
         style="fill:#101838;fill-opacity:1;fill-rule:nonzero;stroke:none"
         transform="matrix(0.13333333,0,0,-0.13333333,0,225.05333)" />
      <path
         id="path25"
         d="M 1476.87,1687.86 V 632.871 c 0,-73.93 -12.65,-144.992 -36.03,-210.902 -7.43,-21.098 -15.95,-41.61 -25.49,-61.61 -26.08,-54.597 -59.75,-104.82 -99.67,-149.379 -15.61,-17.55 -32.24,-34.179 -49.79,-49.781 -44.56,-39.918 -94.77,-73.5974 -149.37,-99.7576 -20,-9.4531 -40.51,-17.9805 -61.61,-25.4023 C 989,12.6602 918.023,0.0117188 844.012,0.0117188 H 422.047 L 633.031,210.98 h 210.903 0.078 c 76.797,0 148.867,20.508 210.898,56.379 64.05,37.129 117.48,90.563 154.52,154.61 35.87,62.031 56.46,134.101 56.46,210.902 v 0.078 210.899 0.086 210.896 0.08 210.98 210.9 l -632.859,0.09 210.981,210.98 h 210.898 210.98 210.98"
         style="fill:#f2574c;fill-opacity:1;fill-rule:nonzero;stroke:none"
         transform="matrix(0.13333333,0,0,-0.13333333,0,225.05333)" />
    </g>
  </g>
</svg>
